<svg width="23" height="77" viewBox="0 0 23 77" fill="none" xmlns="http://www.w3.org/2000/svg">
<mask id="path-1-inside-1_156_14" fill="white">
<path d="M17.3652 61.253C16.0594 61.103 12.828 60.6175 12.2304 57.6605C11.6328 54.6859 11.5 53 11.5 53C11.5 53 11.3672 54.6859 10.7586 57.6694C10.161 60.6263 6.92958 61.103 5.62374 61.2619C4.31791 61.4119 0.5 61.6414 0.5 61.6414C0.5 61.6414 4.31791 62.0563 5.62374 62.3299C6.92958 62.6035 10.1499 63.0184 10.6147 68.0408C11.1016 73.3192 11.5 77 11.5 77C11.5 77 11.8873 73.3192 12.3853 68.0408C12.8501 63.0272 16.0704 62.6035 17.3763 62.3299C18.6821 62.0563 22.5 61.6414 22.5 61.6414C22.5 61.6414 18.6821 61.4119 17.3763 61.253"/>
</mask>
<path d="M17.3652 61.253C16.0594 61.103 12.828 60.6175 12.2304 57.6605C11.6328 54.6859 11.5 53 11.5 53C11.5 53 11.3672 54.6859 10.7586 57.6694C10.161 60.6263 6.92958 61.103 5.62374 61.2619C4.31791 61.4119 0.5 61.6414 0.5 61.6414C0.5 61.6414 4.31791 62.0563 5.62374 62.3299C6.92958 62.6035 10.1499 63.0184 10.6147 68.0408C11.1016 73.3192 11.5 77 11.5 77C11.5 77 11.8873 73.3192 12.3853 68.0408C12.8501 63.0272 16.0704 62.6035 17.3763 62.3299C18.6821 62.0563 22.5 61.6414 22.5 61.6414C22.5 61.6414 18.6821 61.4119 17.3763 61.253" fill="#F56400"/>
<path d="M12.2304 57.6605L11.25 57.8575L11.2502 57.8586L12.2304 57.6605ZM11.5 53L12.4969 52.9215L10.5031 52.9215L11.5 53ZM10.7586 57.6694L9.77873 57.4695L9.77837 57.4713L10.7586 57.6694ZM5.62374 61.2619L5.73791 62.2553L5.74452 62.2545L5.62374 61.2619ZM0.5 61.6414L0.439998 60.6432L0.391975 62.6356L0.5 61.6414ZM10.6147 68.0408L11.6105 67.949L11.6104 67.9487L10.6147 68.0408ZM11.5 77L10.5058 77.1076L12.4945 77.1047L11.5 77ZM12.3853 68.0408L13.3809 68.1348L13.381 68.1331L12.3853 68.0408ZM22.5 61.6414L22.608 62.6356L22.56 60.6432L22.5 61.6414ZM17.4794 60.2596C16.8438 60.1865 15.8539 60.0412 14.9703 59.6105C14.1157 59.1939 13.4304 58.5503 13.2106 57.4624L11.2502 57.8586C11.6279 59.7277 12.8571 60.8054 14.094 61.4083C15.302 61.9971 16.5808 62.1695 17.251 62.2465L17.4794 60.2596ZM13.2108 57.4636C12.9164 55.998 12.7372 54.8536 12.632 54.08C12.5794 53.6932 12.5452 53.3991 12.5245 53.204C12.5141 53.1064 12.507 53.0336 12.5026 52.9862C12.5004 52.9625 12.4989 52.9452 12.498 52.9344C12.4975 52.929 12.4972 52.9252 12.497 52.9231C12.497 52.922 12.4969 52.9213 12.4969 52.921C12.4969 52.9209 12.4969 52.9209 12.4969 52.9209C12.4969 52.921 12.4969 52.921 12.4969 52.9211C12.4969 52.9212 12.4969 52.9213 12.4969 52.9213C12.4969 52.9214 12.4969 52.9215 11.5 53C10.5031 53.0785 10.5031 53.0786 10.5031 53.0788C10.5031 53.0788 10.5031 53.0789 10.5031 53.079C10.5031 53.0792 10.5032 53.0794 10.5032 53.0797C10.5032 53.0802 10.5033 53.0807 10.5033 53.0814C10.5034 53.0828 10.5036 53.0846 10.5038 53.0868C10.5041 53.0912 10.5046 53.0972 10.5053 53.1049C10.5066 53.1202 10.5085 53.1421 10.5111 53.1703C10.5163 53.2268 10.5243 53.3089 10.5357 53.4158C10.5585 53.6297 10.5949 53.943 10.6502 54.3496C10.7608 55.1626 10.9468 56.3485 11.25 57.8575L13.2108 57.4636ZM11.5 53C10.5031 52.9215 10.5031 52.9214 10.5031 52.9213C10.5031 52.9213 10.5031 52.9212 10.5031 52.9211C10.5031 52.921 10.5031 52.921 10.5031 52.9209C10.5031 52.9208 10.5031 52.9209 10.5031 52.921C10.5031 52.9212 10.5031 52.9219 10.503 52.923C10.5028 52.9251 10.5025 52.9289 10.502 52.9342C10.5011 52.945 10.4996 52.9622 10.4974 52.9858C10.493 53.0331 10.4859 53.1058 10.4754 53.2034C10.4545 53.3984 10.4201 53.6925 10.3668 54.0796C10.2603 54.8538 10.0785 55.9999 9.77873 57.4695L11.7384 57.8693C12.0472 56.3554 12.2361 55.1668 12.3482 54.3522C12.4042 53.9449 12.441 53.631 12.464 53.4167C12.4755 53.3096 12.4836 53.2273 12.4888 53.1707C12.4915 53.1424 12.4934 53.1205 12.4947 53.1051C12.4954 53.0974 12.4959 53.0913 12.4962 53.0869C12.4964 53.0847 12.4966 53.0829 12.4967 53.0815C12.4967 53.0808 12.4968 53.0802 12.4968 53.0797C12.4968 53.0794 12.4969 53.0792 12.4969 53.079C12.4969 53.0789 12.4969 53.0788 12.4969 53.0788C12.4969 53.0786 12.4969 53.0785 11.5 53ZM9.77837 57.4713C9.55865 58.5585 8.87413 59.1999 8.01935 59.6156C7.13489 60.0458 6.1452 60.191 5.50296 60.2692L5.74452 62.2545C6.40812 62.1738 7.68705 62.0013 8.89413 61.4142C10.1309 60.8126 11.3609 59.7372 11.7387 57.8675L9.77837 57.4713ZM5.50958 60.2684C4.88424 60.3403 3.62798 60.4337 2.50423 60.5102C1.94751 60.5481 1.43121 60.5814 1.05401 60.6052C0.865456 60.6171 0.711768 60.6266 0.605299 60.6331C0.552067 60.6364 0.510646 60.6389 0.482579 60.6406C0.468546 60.6415 0.457852 60.6421 0.450691 60.6426C0.44711 60.6428 0.444413 60.6429 0.442622 60.6431C0.441727 60.6431 0.441059 60.6431 0.440621 60.6432C0.440401 60.6432 0.44024 60.6432 0.440136 60.6432C0.440084 60.6432 0.440049 60.6432 0.440023 60.6432C0.440003 60.6432 0.439998 60.6432 0.5 61.6414C0.560002 62.6396 0.560026 62.6396 0.560064 62.6396C0.560096 62.6396 0.560149 62.6396 0.560213 62.6396C0.560341 62.6396 0.560528 62.6396 0.560772 62.6396C0.561259 62.6395 0.561977 62.6395 0.562922 62.6394C0.564812 62.6393 0.56761 62.6392 0.571293 62.6389C0.578659 62.6385 0.589563 62.6378 0.603812 62.637C0.63231 62.6352 0.674189 62.6327 0.727903 62.6294C0.835327 62.6228 0.990115 62.6132 1.17989 62.6012C1.55936 62.5773 2.07915 62.5438 2.64014 62.5056C3.7518 62.4299 5.05741 62.3335 5.7379 62.2553L5.50958 60.2684ZM0.5 61.6414C0.391975 62.6356 0.391973 62.6356 0.391985 62.6356C0.392009 62.6356 0.392036 62.6356 0.392083 62.6356C0.392177 62.6356 0.392328 62.6356 0.392538 62.6356C0.392956 62.6357 0.393604 62.6357 0.394479 62.6358C0.396228 62.636 0.398884 62.6363 0.402423 62.6367C0.409501 62.6375 0.420109 62.6386 0.434053 62.6402C0.461944 62.6432 0.503178 62.6478 0.556213 62.6537C0.662292 62.6654 0.81553 62.6826 1.00359 62.7041C1.37986 62.747 1.89474 62.807 2.44972 62.8755C3.57802 63.0147 4.81472 63.1821 5.41865 63.3086L5.82883 61.3512C5.12692 61.2041 3.80176 61.0272 2.69465 60.8906C2.13192 60.8211 1.61071 60.7604 1.23032 60.717C1.04004 60.6952 0.884803 60.6779 0.776989 60.6659C0.723078 60.6599 0.681012 60.6553 0.652338 60.6521C0.638001 60.6505 0.627011 60.6493 0.619561 60.6485C0.615836 60.6481 0.612996 60.6478 0.611066 60.6476C0.6101 60.6475 0.609362 60.6474 0.608855 60.6474C0.608601 60.6473 0.608404 60.6473 0.608266 60.6473C0.608197 60.6473 0.608137 60.6473 0.608102 60.6473C0.608056 60.6473 0.608025 60.6473 0.5 61.6414ZM5.41865 63.3086C6.12762 63.4572 7.02084 63.5975 7.83665 64.2061C8.59804 64.7741 9.40796 65.8531 9.61894 68.133L11.6104 67.9487C11.3566 65.2061 10.324 63.5665 9.03257 62.603C7.79556 61.6802 6.4257 61.4762 5.82883 61.3512L5.41865 63.3086ZM9.61892 68.1327C9.86271 70.7755 10.0843 73.0184 10.2451 74.6009C10.3254 75.3921 10.3906 76.0184 10.4356 76.447C10.4582 76.6613 10.4757 76.8262 10.4876 76.9377C10.4935 76.9934 10.4981 77.0358 10.5011 77.0643C10.5027 77.0785 10.5038 77.0893 10.5046 77.0965C10.505 77.1002 10.5053 77.1029 10.5055 77.1047C10.5056 77.1057 10.5057 77.1064 10.5057 77.1068C10.5057 77.1071 10.5058 77.1073 10.5058 77.1074C10.5058 77.1075 10.5058 77.1075 10.5058 77.1075C10.5058 77.1076 10.5058 77.1076 11.5 77C12.4942 76.8924 12.4942 76.8924 12.4942 76.8924C12.4942 76.8923 12.4942 76.8923 12.4942 76.8923C12.4942 76.8922 12.4942 76.892 12.4941 76.8918C12.4941 76.8914 12.494 76.8907 12.4939 76.8899C12.4937 76.8882 12.4935 76.8855 12.4931 76.882C12.4923 76.875 12.4912 76.8645 12.4897 76.8505C12.4867 76.8225 12.4822 76.7806 12.4763 76.7254C12.4645 76.6149 12.4471 76.4511 12.4247 76.2378C12.3798 75.8114 12.3149 75.1875 12.2348 74.3988C12.0746 72.8213 11.8536 70.5846 11.6105 67.949L9.61892 68.1327ZM11.5 77C12.4945 77.1047 12.4945 77.1046 12.4945 77.1046C12.4945 77.1046 12.4945 77.1045 12.4945 77.1045C12.4945 77.1043 12.4946 77.1042 12.4946 77.1039C12.4946 77.1034 12.4947 77.1028 12.4948 77.1018C12.495 77.1 12.4953 77.0973 12.4957 77.0937C12.4964 77.0865 12.4975 77.0757 12.499 77.0615C12.502 77.0331 12.5064 76.9908 12.5122 76.9352C12.5238 76.8239 12.5409 76.6591 12.563 76.445C12.6072 76.0167 12.6713 75.3909 12.7509 74.6C12.9101 73.0183 13.1317 70.7764 13.3809 68.1348L11.3897 67.9469C11.141 70.5837 10.9198 72.8213 10.7609 74.3996C10.6815 75.1888 10.6176 75.813 10.5736 76.2398C10.5516 76.4532 10.5345 76.6173 10.523 76.7279C10.5172 76.7832 10.5129 76.8251 10.5099 76.8532C10.5084 76.8673 10.5073 76.8778 10.5066 76.8849C10.5062 76.8884 10.5059 76.891 10.5058 76.8928C10.5057 76.8937 10.5056 76.8943 10.5056 76.8947C10.5055 76.8949 10.5055 76.8951 10.5055 76.8952C10.5055 76.8953 10.5055 76.8953 10.5055 76.8953C10.5055 76.8953 10.5055 76.8953 11.5 77ZM13.381 68.1331C13.5919 65.8581 14.4016 64.7785 15.1639 64.209C15.98 63.5992 16.8745 63.4567 17.5813 63.3086L17.1712 61.3512C16.5721 61.4767 15.2036 61.6828 13.9669 62.6068C12.6764 63.5709 11.6435 65.2099 11.3896 67.9485L13.381 68.1331ZM17.5813 63.3086C18.1853 63.1821 19.422 63.0147 20.5503 62.8755C21.1053 62.807 21.6201 62.747 21.9964 62.7041C22.1845 62.6826 22.3377 62.6654 22.4438 62.6537C22.4968 62.6478 22.5381 62.6432 22.5659 62.6402C22.5799 62.6386 22.5905 62.6375 22.5976 62.6367C22.6011 62.6363 22.6038 62.636 22.6055 62.6358C22.6064 62.6357 22.607 62.6357 22.6075 62.6356C22.6077 62.6356 22.6078 62.6356 22.6079 62.6356C22.608 62.6356 22.608 62.6356 22.608 62.6356C22.608 62.6356 22.608 62.6356 22.5 61.6414C22.392 60.6473 22.3919 60.6473 22.3919 60.6473C22.3919 60.6473 22.3918 60.6473 22.3917 60.6473C22.3916 60.6473 22.3914 60.6473 22.3911 60.6474C22.3906 60.6474 22.3899 60.6475 22.3889 60.6476C22.387 60.6478 22.3842 60.6481 22.3804 60.6485C22.373 60.6493 22.362 60.6505 22.3477 60.6521C22.319 60.6553 22.2769 60.6599 22.223 60.6659C22.1152 60.6779 21.96 60.6952 21.7697 60.717C21.3893 60.7604 20.8681 60.8211 20.3054 60.8906C19.1982 61.0272 17.8731 61.2041 17.1712 61.3512L17.5813 63.3086ZM22.5 61.6414C22.56 60.6432 22.56 60.6432 22.56 60.6432C22.56 60.6432 22.5599 60.6432 22.5599 60.6432C22.5598 60.6432 22.5596 60.6432 22.5594 60.6432C22.559 60.6432 22.5583 60.6431 22.5574 60.6431C22.5556 60.6429 22.5529 60.6428 22.5493 60.6426C22.5422 60.6421 22.5315 60.6415 22.5175 60.6406C22.4895 60.6389 22.4481 60.6364 22.3949 60.6331C22.2885 60.6266 22.1348 60.617 21.9464 60.6051C21.5693 60.5812 21.0532 60.5476 20.4968 60.5092C19.3723 60.4315 18.119 60.336 17.497 60.2604L17.2555 62.2457C17.9393 62.3289 19.2479 62.4277 20.3589 62.5044C20.9201 62.5432 21.4401 62.577 21.8197 62.6011C22.0096 62.6131 22.1645 62.6227 22.2719 62.6293C22.3257 62.6327 22.3676 62.6352 22.3961 62.637C22.4104 62.6378 22.4213 62.6385 22.4287 62.6389C22.4324 62.6391 22.4352 62.6393 22.4371 62.6394C22.438 62.6395 22.4387 62.6395 22.4392 62.6396C22.4395 62.6396 22.4397 62.6396 22.4398 62.6396C22.4398 62.6396 22.4399 62.6396 22.4399 62.6396C22.44 62.6396 22.44 62.6396 22.5 61.6414Z" fill="#F67821" mask="url(#path-1-inside-1_156_14)"/>
<path d="M11.5 0L11.5 60" stroke="#F67821" stroke-width="0.5"/>
</svg>
