<svg width="30" height="242" viewBox="0 0 30 242" fill="none" xmlns="http://www.w3.org/2000/svg">
<path d="M22.562 220.047C20.8151 219.847 16.4922 219.197 15.6927 215.239C14.8933 211.257 14.7156 209 14.7156 209C14.7156 209 14.538 211.257 13.7237 215.25C12.9243 219.209 8.6014 219.847 6.85447 220.059C5.10754 220.26 0 220.567 0 220.567C0 220.567 5.10754 221.123 6.85447 221.489C8.6014 221.855 12.9095 222.411 13.5313 229.133C14.1827 236.199 14.7156 241.126 14.7156 241.126C14.7156 241.126 15.2338 236.199 15.9 229.133C16.5218 222.422 20.8299 221.855 22.5768 221.489C24.3237 221.123 29.4313 220.567 29.4313 220.567C29.4313 220.567 24.3237 220.26 22.5768 220.047" fill="#F56400"/>
<path d="M15 0L15 213" stroke="#F56400"/>
</svg>
