<?xml version="1.0" encoding="UTF-8"?>
<svg id="_레이어_1" data-name="레이어 1" xmlns="http://www.w3.org/2000/svg" version="1.1" viewBox="0 0 25 25">
  <defs>
    <style>
      .cls-1 {
        fill: #000;
        stroke-width: 0px;
      }
    </style>
  </defs>
  <path class="cls-1" d="M19.8,24.3c-2.5,0-4.5-2-4.5-4.5s0-1.1.3-1.5l-6.6-3.3c-.8,1.2-2.2,2-3.7,2-2.5,0-4.5-2-4.5-4.5s2-4.5,4.5-4.5,3,.8,3.7,2l6.6-3.3c-.2-.5-.3-1-.3-1.5,0-2.5,2-4.5,4.5-4.5s4.5,2,4.5,4.5-2,4.5-4.5,4.5-3-.8-3.7-2l-6.6,3.3c.2.5.3,1,.3,1.5s0,1.1-.3,1.5l6.6,3.3c.8-1.2,2.2-2,3.7-2,2.5,0,4.5,2,4.5,4.5s-2,4.5-4.5,4.5ZM19.8,16.3c-1.9,0-3.5,1.6-3.5,3.5s1.6,3.5,3.5,3.5,3.5-1.6,3.5-3.5-1.6-3.5-3.5-3.5ZM5.2,9c-1.9,0-3.5,1.6-3.5,3.5s1.6,3.5,3.5,3.5,3.5-1.6,3.5-3.5-1.6-3.5-3.5-3.5ZM19.8,1.7c-1.9,0-3.5,1.6-3.5,3.5s1.6,3.5,3.5,3.5,3.5-1.6,3.5-3.5-1.6-3.5-3.5-3.5Z"/>
</svg>